<?xml version="1.0" encoding="UTF-8"?>
<svg width="24" height="24" viewBox="0 0 24 24" fill="none" xmlns="http://www.w3.org/2000/svg">
  <!-- Fondo del icono -->
  <rect width="24" height="24" rx="4" fill="#FF9900"/>
  
  <!-- Flecha de Amazon -->
  <path d="M6.5 7.5C6.5 7.5 8.5 6.5 12 6.5C15.5 6.5 17.5 7.5 17.5 7.5V8.5C17.5 8.5 15.5 9.5 12 9.5C8.5 9.5 6.5 8.5 6.5 8.5V7.5Z" fill="#232F3E"/>
  <path d="M6.5 10.5C6.5 10.5 8.5 11.5 12 11.5C15.5 11.5 17.5 10.5 17.5 10.5V11.5C17.5 11.5 15.5 12.5 12 12.5C8.5 12.5 6.5 11.5 6.5 11.5V10.5Z" fill="#232F3E"/>
  <path d="M6.5 13.5C6.5 13.5 8.5 14.5 12 14.5C15.5 14.5 17.5 13.5 17.5 13.5V14.5C17.5 14.5 15.5 15.5 12 15.5C8.5 15.5 6.5 14.5 6.5 14.5V13.5Z" fill="#232F3E"/>
  
  <!-- Sonrisa -->
  <path d="M12 17.5C14.5 17.5 16.5 16 16.5 16V17C16.5 17 14.5 18.5 12 18.5C9.5 18.5 7.5 17 7.5 17V16C7.5 16 9.5 17.5 12 17.5Z" fill="#232F3E"/>
</svg> 